<?xml version="1.0" encoding="UTF-8" standalone="no"?>
<!DOCTYPE svg PUBLIC "-//W3C//DTD SVG 1.1//EN"
 "http://www.w3.org/Graphics/SVG/1.1/DTD/svg11.dtd">
<!-- Generated by graphviz version 9.0.0 (20230911.1827)
 -->
<!-- Title: G Pages: 1 -->
<svg width="567pt" height="403pt"
 viewBox="0.00 0.00 566.99 402.96" xmlns="http://www.w3.org/2000/svg" xmlns:xlink="http://www.w3.org/1999/xlink">
<g id="graph0" class="graph" transform="scale(1 1) rotate(0) translate(4 398.96)">
<title>G</title><style>.edge>path:hover{stroke-width:8}</style>
<polygon fill="white" stroke="none" points="-4,4 -4,-398.96 562.99,-398.96 562.99,4 -4,4"/>
<!-- django -->
<g id="node1" class="node">
<title>django</title><style>.edge>path:hover{stroke-width:8}</style>
<ellipse fill="#ef0606" stroke="black" cx="317.59" cy="-265.62" rx="27" ry="18"/>
<text text-anchor="middle" x="317.59" y="-262.12" font-family="Helvetica,sans-Serif" font-size="10.00" fill="#ffffff">django</text>
</g>
<!-- geobrainroom_asgi -->
<g id="node9" class="node">
<title>geobrainroom_asgi</title><style>.edge>path:hover{stroke-width:8}</style>
<ellipse fill="#46a4a4" stroke="black" cx="188.59" cy="-103.88" rx="54.8" ry="22.63"/>
<text text-anchor="middle" x="188.59" y="-106.38" font-family="Helvetica,sans-Serif" font-size="10.00" fill="#000000">geobrainroom.</text>
<text text-anchor="middle" x="188.59" y="-94.38" font-family="Helvetica,sans-Serif" font-size="10.00" fill="#000000">asgi</text>
</g>
<!-- django&#45;&gt;geobrainroom_asgi -->
<g id="edge1" class="edge">
<title>django&#45;&gt;geobrainroom_asgi</title><style>.edge>path:hover{stroke-width:8}</style>
<path fill="none" stroke="black" d="M207.59,-179.51C195.67,-169.43 190.67,-153.01 188.76,-138.14"/>
<polygon fill="#ef0606" stroke="black" points="192.25,-137.89 187.94,-128.21 185.27,-138.46 192.25,-137.89"/>
</g>
<!-- geobrainroom_urls -->
<g id="node10" class="node">
<title>geobrainroom_urls</title><style>.edge>path:hover{stroke-width:8}</style>
<ellipse fill="#3d8f8f" stroke="black" cx="438.59" cy="-22.63" rx="54.8" ry="22.63"/>
<text text-anchor="middle" x="438.59" y="-25.13" font-family="Helvetica,sans-Serif" font-size="10.00" fill="#ffffff">geobrainroom.</text>
<text text-anchor="middle" x="438.59" y="-13.13" font-family="Helvetica,sans-Serif" font-size="10.00" fill="#ffffff">urls</text>
</g>
<!-- django&#45;&gt;geobrainroom_urls -->
<g id="edge2" class="edge">
<title>django&#45;&gt;geobrainroom_urls</title><style>.edge>path:hover{stroke-width:8}</style>
<path fill="none" stroke="black" d="M324.87,-247.93C332.32,-231.05 344.36,-204.28 355.59,-181.51"/>
<path fill="none" stroke="black" d="M355.59,-179.51C370.26,-149.76 336.24,-131.82 355.59,-104.88"/>
</g>
<!-- geobrainroom_views -->
<g id="node11" class="node">
<title>geobrainroom_views</title><style>.edge>path:hover{stroke-width:8}</style>
<ellipse fill="#3db8b8" stroke="black" cx="438.59" cy="-103.88" rx="54.8" ry="22.63"/>
<text text-anchor="middle" x="438.59" y="-106.38" font-family="Helvetica,sans-Serif" font-size="10.00" fill="#000000">geobrainroom.</text>
<text text-anchor="middle" x="438.59" y="-94.38" font-family="Helvetica,sans-Serif" font-size="10.00" fill="#000000">views</text>
</g>
<!-- django&#45;&gt;geobrainroom_views -->
<g id="edge3" class="edge">
<title>django&#45;&gt;geobrainroom_views</title><style>.edge>path:hover{stroke-width:8}</style>
<path fill="none" stroke="black" d="M355.59,-179.51C365.42,-159.57 383.12,-142.51 399.65,-129.75"/>
<polygon fill="#ef0606" stroke="black" points="401.46,-132.77 407.44,-124.02 397.31,-127.13 401.46,-132.77"/>
</g>
<!-- geobrainroom_wsgi -->
<g id="node12" class="node">
<title>geobrainroom_wsgi</title><style>.edge>path:hover{stroke-width:8}</style>
<ellipse fill="#46a4a4" stroke="black" cx="60.59" cy="-103.88" rx="54.8" ry="22.63"/>
<text text-anchor="middle" x="60.59" y="-106.38" font-family="Helvetica,sans-Serif" font-size="10.00" fill="#000000">geobrainroom.</text>
<text text-anchor="middle" x="60.59" y="-94.38" font-family="Helvetica,sans-Serif" font-size="10.00" fill="#000000">wsgi</text>
</g>
<!-- django&#45;&gt;geobrainroom_wsgi -->
<g id="edge4" class="edge">
<title>django&#45;&gt;geobrainroom_wsgi</title><style>.edge>path:hover{stroke-width:8}</style>
<path fill="none" stroke="black" d="M299.05,-251.98C280.37,-239.05 250.9,-218.13 226.59,-198.51 217.77,-191.39 216.24,-188.83 207.59,-181.51"/>
<path fill="none" stroke="black" d="M207.59,-179.51C179.05,-155.37 141.37,-136.44 111.3,-123.68"/>
<polygon fill="#ef0606" stroke="black" points="112.99,-120.59 102.41,-120.01 110.32,-127.06 112.99,-120.59"/>
</g>
<!-- django_contrib -->
<g id="node2" class="node">
<title>django_contrib</title><style>.edge>path:hover{stroke-width:8}</style>
<ellipse fill="#c24747" stroke="black" cx="281.59" cy="-180.51" rx="46.15" ry="18"/>
<text text-anchor="middle" x="281.59" y="-177.01" font-family="Helvetica,sans-Serif" font-size="10.00" fill="#ffffff">django.contrib</text>
</g>
<!-- django_contrib&#45;&gt;geobrainroom_urls -->
<g id="edge5" class="edge">
<title>django_contrib&#45;&gt;geobrainroom_urls</title><style>.edge>path:hover{stroke-width:8}</style>
<path fill="none" stroke="black" d="M300.29,-163.72C316.35,-149.49 339.41,-127.41 355.59,-104.88"/>
<path fill="none" stroke="black" d="M355.59,-102.88C369.64,-83.32 388.94,-64.55 405.39,-50.2"/>
<polygon fill="#c24747" stroke="black" points="407.2,-53.25 412.54,-44.09 402.66,-47.92 407.2,-53.25"/>
</g>
<!-- django_contrib_admin -->
<g id="node3" class="node">
<title>django_contrib_admin</title><style>.edge>path:hover{stroke-width:8}</style>
<ellipse fill="#b03a3a" stroke="black" cx="494.59" cy="-265.62" rx="34.12" ry="31.11"/>
<text text-anchor="middle" x="494.59" y="-274.12" font-family="Helvetica,sans-Serif" font-size="10.00" fill="#ffffff">django.</text>
<text text-anchor="middle" x="494.59" y="-262.12" font-family="Helvetica,sans-Serif" font-size="10.00" fill="#ffffff">contrib.</text>
<text text-anchor="middle" x="494.59" y="-250.12" font-family="Helvetica,sans-Serif" font-size="10.00" fill="#ffffff">admin</text>
</g>
<!-- django_contrib_admin&#45;&gt;geobrainroom_urls -->
<g id="edge6" class="edge">
<title>django_contrib_admin&#45;&gt;geobrainroom_urls</title><style>.edge>path:hover{stroke-width:8}</style>
<path fill="none" stroke="black" d="M556.59,-179.51C566.21,-124.97 515.63,-76.63 477.68,-48.74"/>
<polygon fill="#b03a3a" stroke="black" points="479.76,-45.92 469.58,-42.97 475.7,-51.62 479.76,-45.92"/>
<path fill="none" stroke="black" d="M520.53,-244.74C537.26,-229.52 556.01,-206.89 556.59,-181.51"/>
</g>
<!-- django_core -->
<g id="node4" class="node">
<title>django_core</title><style>.edge>path:hover{stroke-width:8}</style>
<ellipse fill="#db2f2f" stroke="black" cx="101.59" cy="-265.62" rx="39.84" ry="18"/>
<text text-anchor="middle" x="101.59" y="-262.12" font-family="Helvetica,sans-Serif" font-size="10.00" fill="#ffffff">django.core</text>
</g>
<!-- django_core&#45;&gt;geobrainroom_asgi -->
<g id="edge7" class="edge">
<title>django_core&#45;&gt;geobrainroom_asgi</title><style>.edge>path:hover{stroke-width:8}</style>
<path fill="none" stroke="black" d="M116.59,-179.51C119.41,-159.39 133.73,-142.51 148.87,-129.92"/>
<polygon fill="#db2f2f" stroke="black" points="150.84,-132.82 156.6,-123.93 146.55,-127.29 150.84,-132.82"/>
</g>
<!-- django_core&#45;&gt;geobrainroom_wsgi -->
<g id="edge8" class="edge">
<title>django_core&#45;&gt;geobrainroom_wsgi</title><style>.edge>path:hover{stroke-width:8}</style>
<path fill="none" stroke="black" d="M116.59,-179.51C119.14,-161.31 108.43,-144.58 95.71,-131.6"/>
<polygon fill="#db2f2f" stroke="black" points="98.43,-129.35 88.74,-125.06 93.64,-134.45 98.43,-129.35"/>
<path fill="none" stroke="black" d="M105.09,-247.49C108.41,-230.73 113.37,-204.45 116.59,-181.51"/>
</g>
<!-- django_core_asgi -->
<g id="node5" class="node">
<title>django_core_asgi</title><style>.edge>path:hover{stroke-width:8}</style>
<ellipse fill="#ac4949" stroke="black" cx="169.59" cy="-363.85" rx="33.59" ry="31.11"/>
<text text-anchor="middle" x="169.59" y="-372.35" font-family="Helvetica,sans-Serif" font-size="10.00" fill="#ffffff">django.</text>
<text text-anchor="middle" x="169.59" y="-360.35" font-family="Helvetica,sans-Serif" font-size="10.00" fill="#ffffff">core.</text>
<text text-anchor="middle" x="169.59" y="-348.35" font-family="Helvetica,sans-Serif" font-size="10.00" fill="#ffffff">asgi</text>
</g>
<!-- django_core_asgi&#45;&gt;geobrainroom_asgi -->
<g id="edge9" class="edge">
<title>django_core_asgi&#45;&gt;geobrainroom_asgi</title><style>.edge>path:hover{stroke-width:8}</style>
<path fill="none" stroke="black" d="M171.82,-332.5C175.41,-283.79 182.43,-188.55 186.14,-138.09"/>
<polygon fill="#ac4949" stroke="black" points="189.61,-138.61 186.86,-128.38 182.63,-138.09 189.61,-138.61"/>
</g>
<!-- django_core_wsgi -->
<g id="node6" class="node">
<title>django_core_wsgi</title><style>.edge>path:hover{stroke-width:8}</style>
<ellipse fill="#ac4949" stroke="black" cx="33.59" cy="-363.85" rx="33.59" ry="31.11"/>
<text text-anchor="middle" x="33.59" y="-372.35" font-family="Helvetica,sans-Serif" font-size="10.00" fill="#ffffff">django.</text>
<text text-anchor="middle" x="33.59" y="-360.35" font-family="Helvetica,sans-Serif" font-size="10.00" fill="#ffffff">core.</text>
<text text-anchor="middle" x="33.59" y="-348.35" font-family="Helvetica,sans-Serif" font-size="10.00" fill="#ffffff">wsgi</text>
</g>
<!-- django_core_wsgi&#45;&gt;geobrainroom_wsgi -->
<g id="edge10" class="edge">
<title>django_core_wsgi&#45;&gt;geobrainroom_wsgi</title><style>.edge>path:hover{stroke-width:8}</style>
<path fill="none" stroke="black" d="M36.76,-332.5C41.86,-283.79 51.83,-188.55 57.11,-138.09"/>
<polygon fill="#ac4949" stroke="black" points="60.57,-138.68 58.13,-128.37 53.61,-137.95 60.57,-138.68"/>
</g>
<!-- django_shortcuts -->
<g id="node7" class="node">
<title>django_shortcuts</title><style>.edge>path:hover{stroke-width:8}</style>
<ellipse fill="#ac4949" stroke="black" cx="402.59" cy="-265.62" rx="39.95" ry="22.63"/>
<text text-anchor="middle" x="402.59" y="-268.12" font-family="Helvetica,sans-Serif" font-size="10.00" fill="#ffffff">django.</text>
<text text-anchor="middle" x="402.59" y="-256.12" font-family="Helvetica,sans-Serif" font-size="10.00" fill="#ffffff">shortcuts</text>
</g>
<!-- django_shortcuts&#45;&gt;geobrainroom_views -->
<g id="edge11" class="edge">
<title>django_shortcuts&#45;&gt;geobrainroom_views</title><style>.edge>path:hover{stroke-width:8}</style>
<path fill="none" stroke="black" d="M407.52,-242.75C413.64,-215.58 424.14,-168.99 431.22,-137.57"/>
<polygon fill="#ac4949" stroke="black" points="434.54,-138.75 433.33,-128.23 427.71,-137.21 434.54,-138.75"/>
</g>
<!-- django_urls -->
<g id="node8" class="node">
<title>django_urls</title><style>.edge>path:hover{stroke-width:8}</style>
<ellipse fill="#ce3b3b" stroke="black" cx="402.59" cy="-363.85" rx="38.03" ry="18"/>
<text text-anchor="middle" x="402.59" y="-360.35" font-family="Helvetica,sans-Serif" font-size="10.00" fill="#ffffff">django.urls</text>
</g>
<!-- django_urls&#45;&gt;django -->
<g id="edge12" class="edge">
<title>django_urls&#45;&gt;django</title><style>.edge>path:hover{stroke-width:8}</style>
<path fill="none" stroke="black" d="M388.55,-346.96C374.9,-331.5 353.99,-307.84 338.41,-290.19"/>
<polygon fill="#ce3b3b" stroke="black" points="341.05,-287.9 331.81,-282.72 335.8,-292.53 341.05,-287.9"/>
</g>
<!-- django_urls&#45;&gt;django_shortcuts -->
<g id="edge13" class="edge">
<title>django_urls&#45;&gt;django_shortcuts</title><style>.edge>path:hover{stroke-width:8}</style>
<path fill="none" stroke="black" d="M402.59,-345.64C402.59,-332.89 402.59,-315.12 402.59,-299.66"/>
<polygon fill="#ce3b3b" stroke="black" points="406.09,-299.92 402.59,-289.92 399.09,-299.92 406.09,-299.92"/>
</g>
<!-- django_urls&#45;&gt;geobrainroom_urls -->
<g id="edge14" class="edge">
<title>django_urls&#45;&gt;geobrainroom_urls</title><style>.edge>path:hover{stroke-width:8}</style>
<path fill="none" stroke="black" d="M436.87,-355.5C468.19,-346.92 513.22,-329.51 537.59,-296.74 568.56,-255.09 555.4,-233.4 556.59,-181.51"/>
</g>
<!-- geobrainroom_views&#45;&gt;geobrainroom_urls -->
<g id="edge15" class="edge">
<title>geobrainroom_views&#45;&gt;geobrainroom_urls</title><style>.edge>path:hover{stroke-width:8}</style>
<path fill="none" stroke="black" d="M438.59,-80.81C438.59,-73.42 438.59,-65.01 438.59,-56.97"/>
<polygon fill="#3db8b8" stroke="black" points="442.09,-57.1 438.59,-47.1 435.09,-57.1 442.09,-57.1"/>
</g>
</g>
</svg>
